<svg height="600" version="1.1" width="800" xmlns="http://www.w3.org/2000/svg" preserveAspectRatio="xMidYMid meet" viewBox="0 0 600 442" xmlns:xlink="http://www.w3.org/1999/xlink"><desc>Created with Snap</desc><defs/><g id="root" contentwidth="284" contentheight="142.39999999999998">
          <rect class="background" height="2000%" width="2000%" y="-1000%" x="-1000%" style="" fill="#ffffff"/>
          <g class="content" id="content" transform="matrix(1,0,0,1,0,-2.2)">
            <g class="icon">
            <svg height="51" version="1.1" width="73" xmlns="http://www.w3.org/2000/svg" x="159" y="152" preserveAspectRatio="none" transform="matrix(1,0,0,1,0,0)"><desc>Created with Snap</desc><defs/><svg xmlns="http://www.w3.org/2000/svg" viewBox="159 152 73 51"><path id="prefix-NrV-矩形" fill="#74B3FF" transform="rotate(-22 195.154 177.35)" d="m161.186 163.626 53.725 1.954 14.21 25.494h-52z"/></svg></svg><svg height="51" version="1.1" width="73" xmlns="http://www.w3.org/2000/svg" x="368" y="153" preserveAspectRatio="none" transform="matrix(1,0,0,1,0,0)"><desc>Created with Snap</desc><defs/><svg xmlns="http://www.w3.org/2000/svg" viewBox="368 153 73 51"><path id="prefix-XQH-矩形备份-2" fill="#26CF9E" transform="scale(-1 1) rotate(-22 0 2260.215)" d="m370.67 164.612 53.797 1.982 14.21 25.494h-52z"/></svg></svg><svg height="50" version="1.1" width="72" xmlns="http://www.w3.org/2000/svg" x="369" y="238" preserveAspectRatio="none" transform="matrix(1,0,0,1,0,0)"><desc>Created with Snap</desc><defs/><svg xmlns="http://www.w3.org/2000/svg" viewBox="369 238 72 50"><path id="prefix-6-b-矩形备份-3" fill="#63DDB1" transform="scale(-1 1) rotate(-22 0 2348.672)" d="m372.084 249.534 54.717 3.624 11.942 23.308-54.031-2.38z"/></svg></svg><svg height="83" version="1.1" width="25" xmlns="http://www.w3.org/2000/svg" x="417" y="179" preserveAspectRatio="none" transform="matrix(1,0,0,1,0,0)"><desc>Created with Snap</desc><defs/><svg xmlns="http://www.w3.org/2000/svg" viewBox="417 179 25 83"><path id="prefix-_yE-矩形备份-4" fill="#08C98E" transform="matrix(-1 0 0 1 858.579 0)" d="m416.79 179 25 19.639v55.311l-25 8.05z"/></svg></svg><svg height="50" version="1.1" width="72" xmlns="http://www.w3.org/2000/svg" x="158" y="237" preserveAspectRatio="none" transform="matrix(1,0,0,1,0,0)"><desc>Created with Snap</desc><defs/><svg xmlns="http://www.w3.org/2000/svg" viewBox="158 237 72 50"><path id="prefix-ed3-矩形备份" fill="#2C8FF4" transform="rotate(-22 194.376 262)" d="m161.046 248.534 54.718 3.624 11.941 23.308-54.03-2.38z"/></svg></svg><svg height="83" version="1.1" width="25" xmlns="http://www.w3.org/2000/svg" x="158" y="178" preserveAspectRatio="none" transform="matrix(1,0,0,1,0,0)"><desc>Created with Snap</desc><defs/><svg xmlns="http://www.w3.org/2000/svg" viewBox="158 178 25 83"><path id="prefix-eLn-矩形" fill="#0B7CF5" d="m158 178 25 19.639v55.311L158 261z"/></svg></svg></g>
            <g id="icon_name_and_slogan_gap">
            </g>
            <g class="name_and_slogan" id="name_and_slogan_id">
              <g class="name"><g id="nameDefaultGroup"><path d="M232.9 221.9 Q232.9 220.1 230.1 218.7 Q227.3 217.3 223.6 216.4 L223.6 216.4 Q218.7 215 215.7 212.7 Q212.7 210.4 212.7 206.3 L212.7 206.3 Q212.7 203.5 214.7 201.5 Q216.7 199.5 220.1 198.4 Q223.5 197.4 227.6 197.4 L227.6 197.4 Q231.1 197.4 235 198.3 Q238.8 199.3 241.4 200.9 L241.4 200.9 L238.8 207 Q234 203.8 228.6 203.8 L228.6 203.8 Q225.6 203.8 223.6 204.5 Q221.6 205.3 221.6 207 L221.6 207 Q221.6 208.3 223.1 209.1 Q224.6 209.9 227.4 210.7 L227.4 210.7 Q234.4 212.7 238 215.3 Q241.7 217.9 241.7 222.1 L241.7 222.1 Q241.7 227.2 237.6 229.8 Q233.5 232.3 226.7 232.6 L226.7 232.6 Q222.6 232.7 217.8 231.5 Q213 230.3 210.7 228.2 L210.7 228.2 L213.8 221.7 Q217.2 223.6 220 224.4 Q222.9 225.2 226.5 225.2 L226.5 225.2 Q229.5 225.2 231.2 224.3 Q232.9 223.4 232.9 221.9 L232.9 221.9 M273.8 197.4 Q279.6 197.4 284.1 199.6 Q288.6 201.8 291.2 205.8 Q293.7 209.8 293.7 215.1 L293.7 215.1 Q293.7 220.4 291.2 224.4 Q288.6 228.4 284.1 230.5 Q279.5 232.6 273.8 232.6 L273.8 232.6 Q268.1 232.6 263.5 230.5 Q258.9 228.3 256.4 224.3 Q253.8 220.4 253.8 215.1 L253.8 215.1 Q253.8 209.8 256.4 205.8 Q259 201.8 263.5 199.6 Q268.1 197.4 273.8 197.4 L273.8 197.4 M273.8 225.4 Q278.9 225.4 281.4 222.4 Q284 219.3 284 214.7 L284 214.7 Q284 210.1 281.4 207.1 Q278.9 204 273.8 204 L273.8 204 Q268.6 204 266.1 207.1 Q263.6 210.1 263.6 214.7 L263.6 214.7 Q263.6 219.3 266.2 222.4 Q268.7 225.4 273.8 225.4 L273.8 225.4 M328.4 221.9 Q328.4 220.1 325.5 218.7 Q322.7 217.3 319 216.4 L319 216.4 Q314.1 215 311.1 212.7 Q308.2 210.4 308.2 206.3 L308.2 206.3 Q308.2 203.5 310.1 201.5 Q312.1 199.5 315.5 198.4 Q319 197.4 323 197.4 L323 197.4 Q326.6 197.4 330.4 198.3 Q334.2 199.3 336.9 200.9 L336.9 200.9 L334.3 207 Q329.5 203.8 324 203.8 L324 203.8 Q321 203.8 319 204.5 Q317 205.3 317 207 L317 207 Q317 208.3 318.5 209.1 Q320 209.9 322.9 210.7 L322.9 210.7 Q329.8 212.7 333.5 215.3 Q337.1 217.9 337.1 222.1 L337.1 222.1 Q337.1 227.2 333 229.8 Q328.9 232.3 322.1 232.6 L322.1 232.6 Q318 232.7 313.2 231.5 Q308.4 230.3 306.1 228.2 L306.1 228.2 L309.2 221.7 Q312.6 223.6 315.5 224.4 Q318.3 225.2 321.9 225.2 L321.9 225.2 Q324.9 225.2 326.6 224.3 Q328.4 223.4 328.4 221.9 L328.4 221.9 M369.3 197.4 Q375 197.4 379.5 199.6 Q384 201.8 386.6 205.8 Q389.2 209.8 389.2 215.1 L389.2 215.1 Q389.2 220.4 386.6 224.4 Q384 228.4 379.5 230.5 Q375 232.6 369.3 232.6 L369.3 232.6 Q363.5 232.6 358.9 230.5 Q354.4 228.3 351.8 224.3 Q349.2 220.4 349.2 215.1 L349.2 215.1 Q349.2 209.8 351.8 205.8 Q354.4 201.8 359 199.6 Q363.5 197.4 369.3 197.4 L369.3 197.4 M369.3 225.4 Q374.4 225.4 376.9 222.4 Q379.4 219.3 379.4 214.7 L379.4 214.7 Q379.4 210.1 376.9 207.1 Q374.4 204 369.3 204 L369.3 204 Q364.1 204 361.6 207.1 Q359.1 210.1 359.1 214.7 L359.1 214.7 Q359.1 219.3 361.6 222.4 Q364.1 225.4 369.3 225.4 L369.3 225.4 Z" style="" fill="#383838" transform="matrix(1,0,0,1,0,0)"/><path d="M246.1 282.8 L253.2 260.1 L259.9 260.1 L266.9 282.8 L273.9 259.2 L282.1 261.8 L271.6 294 L263.5 294 L256.5 272.7 L249.5 294 L241.2 294 L230.8 261.8 L239.2 259.2 L246.1 282.8 M300.5 294 L291.5 294 L291.5 260.1 L300.5 260.1 L300.5 294 M322.2 259.9 L322.2 274.5 L335.7 259.7 L342.2 265.2 L331.2 277.5 L344.6 287.9 L338.6 294.4 L322.2 281.1 L322.2 293.8 L313 293.8 L313 259.9 L322.2 259.9 M365.2 294 L356.3 294 L356.3 260.1 L365.2 260.1 L365.2 294 Z" style="" fill="#383838" transform="matrix(1,0,0,1,0,0)"/></g></g>
              <g class="slogan"><g id="sloganDefaultGroup"/></g>
            </g>
            <g class="border">
            </g>
          </g>
          
          <defs id="defs">
            <mask xmlns="http://www.w3.org/2000/svg" id="mask">
                <rect id="showAll" fill="white" x="158" y="152" width="284" height="136"/>
                <rect id="hideNameBg" fill="black" x="0" y="0" width="0" height="0" stroke-width="2" stroke="black"/>
                <rect id="hideSloganBg" fill="black" x="0" y="0" width="0" height="0" stroke-width="2" stroke="black"/>
            </mask>
          </defs>
          
        </g>
        </svg>